<svg xmlns="http://www.w3.org/2000/svg" xmlns:xlink="http://www.w3.org/1999/xlink" xmlns:lucid="lucid" width="1740" height="660"><g transform="translate(-60 -180)" lucid:page-tab-id="0_0"><path d="M0 0h1870.4v1323.2H0z" fill="#fff"/><path d="M700 202c0-1.1.9-2 2-2h1076c1.1 0 2 .9 2 2v556c0 1.1-.9 2-2 2H702c-1.1 0-2-.9-2-2z" fill="#f6f6f6"/><path d="M751.72 228.08c.02-2.27.85-4.2 2.48-5.8 1.64-1.6 3.6-2.38 5.87-2.37 1.06 0 2.07.18 3.03.57.97.4 1.84.96 2.58 1.7l-1.63 1.56c-1.13-1.07-2.44-1.6-3.98-1.6-1.06 0-2.07.27-3 .8-.9.55-1.63 1.28-2.15 2.2-.53.94-.76 1.93-.74 3-.02 1.06.2 2.05.74 2.97.53.93 1.24 1.66 2.16 2.2.92.54 1.93.8 3 .8.77.04 1.5-.1 2.22-.37.7-.3 1.33-.7 1.88-1.26.74-.8 1.16-1.73 1.22-2.8h-5.33v-2.33h7.47c.1.47.14.93.14 1.4.07 2-.6 3.75-1.95 5.23-.74.77-1.6 1.35-2.58 1.75-1 .4-2.02.58-3.08.54-2.28 0-4.23-.78-5.87-2.37-1.63-1.6-2.46-3.54-2.48-5.82zm0 0M773.75 225.73c-1.45 0-2.7.52-3.72 1.55-1.04 1.03-1.54 2.26-1.54 3.72 0 1.45.5 2.7 1.55 3.72 1.04 1.03 2.28 1.54 3.73 1.54 1.45 0 2.7-.5 3.72-1.54 1.04-1.03 1.54-2.27 1.54-3.72.03-.95-.2-1.84-.66-2.66-.46-.82-1.13-1.47-1.96-1.94-.83-.46-1.72-.7-2.67-.67zm0 8.45c-.55 0-1.06-.16-1.54-.45-.47-.3-.84-.68-1.1-1.17-.25-.5-.36-1.02-.34-1.57 0-.84.3-1.55.88-2.13.57-.6 1.28-.88 2.1-.88.84 0 1.58.28 2.15.87.57.58.87 1.3.87 2.12.02.54-.1 1.07-.35 1.56-.25.5-.62.88-1.1 1.18-.5.3-1 .44-1.57.45zM785.32 225.73c-1.45 0-2.7.52-3.72 1.55-1.04 1.03-1.54 2.28-1.54 3.73 0 1.46.52 2.7 1.56 3.72 1.03 1.03 2.28 1.54 3.73 1.54 1.44 0 2.7-.5 3.72-1.54 1.04-1.03 1.54-2.27 1.54-3.72.03-.95-.2-1.84-.68-2.66-.48-.83-1.1-1.47-1.93-1.94-.84-.47-1.74-.7-2.68-.67zm0 8.45c-.55 0-1.08-.16-1.56-.45-.5-.3-.83-.68-1.08-1.17-.26-.5-.4-1.02-.37-1.57 0-.84.33-1.55.9-2.13.58-.6 1.3-.88 2.12-.88.83 0 1.54.28 2.12.87.57.58.87 1.3.87 2.12.04.54-.08 1.07-.33 1.56-.26.5-.62.88-1.1 1.18-.5.3-1 .44-1.55.45zM799.5 226.05v.85h-.08c-.37-.38-.78-.68-1.26-.9-.5-.2-1-.28-1.52-.27-1.4.06-2.62.6-3.6 1.62-.96 1.02-1.46 2.23-1.46 3.64 0 1.4.5 2.62 1.47 3.63.97 1.02 2.2 1.56 3.6 1.62.52.02 1.02-.08 1.5-.3.5-.2.93-.5 1.27-.9h.07v.76c0 2-1.1 3.1-2.84 3.1-.57-.02-1.1-.2-1.6-.53-.47-.34-.8-.78-1.02-1.33l-2 .84c.4.94 1 1.7 1.86 2.27.85.57 1.8.85 2.83.84 2.7 0 5-1.6 5-5.5v-9.45h-2.22zm-2.68 8.14c-.55-.02-1.06-.17-1.52-.46-.46-.3-.82-.68-1.08-1.17-.25-.5-.34-1-.32-1.56-.02-.53.07-1.06.32-1.55.26-.5.62-.88 1.08-1.18.46-.3.97-.45 1.52-.47.55.03 1.04.2 1.5.5.46.3.8.7 1.03 1.17.23.5.35 1 .3 1.54.02.55-.07 1.06-.3 1.53-.23.48-.6.87-1.03 1.17-.44.3-.97.46-1.5.5zm0 0M803.3 220.47h2.3v15.47h-2.32zM811.96 234.2c-.56 0-1.06-.13-1.52-.42-.46-.3-.8-.7-1.04-1.2l7.06-2.9-.25-.6c-.3-.98-.9-1.78-1.7-2.4-.84-.6-1.76-.93-2.8-.95-.92 0-1.8.23-2.6.7-.8.5-1.4 1.13-1.84 1.95-.43.82-.62 1.7-.57 2.62-.03.94.2 1.82.66 2.64.46.83 1.1 1.47 1.93 1.94.82.47 1.7.7 2.63.68.88 0 1.73-.2 2.5-.6.8-.43 1.4-1 1.9-1.73l-1.8-1.2c-.27.45-.64.8-1.1 1.07-.46.26-.94.4-1.47.4zm-.2-6.44c.43-.04.82.04 1.18.25.37.2.65.5.83.88l-4.7 2c-.06-.53.03-1.02.26-1.5.23-.47.56-.85 1-1.14.43-.3.9-.45 1.44-.48zm0 0M821.04 228.8c-.02-1.34.28-2.6.94-3.76.67-1.16 1.57-2.08 2.74-2.74 1.17-.67 2.42-1 3.75-.96 1-.02 1.98.17 2.9.58.92.4 1.7 1 2.37 1.75l-1.3 1.24c-.47-.6-1.07-1.06-1.8-1.38-.7-.32-1.4-.46-2.2-.43-1-.03-1.97.22-2.85.73-.88.5-1.57 1.2-2.05 2.1-.48.9-.7 1.85-.67 2.87-.04 1 .2 1.95.7 2.84.47.88 1.14 1.58 2 2.08.9.5 1.83.75 2.84.73.86 0 1.66-.16 2.42-.5.76-.36 1.42-.85 1.98-1.5l1.28 1.3c-1.03 1.15-2.27 1.9-3.8 2.28-1.5.38-2.98.3-4.43-.26-1.45-.55-2.64-1.46-3.52-2.74-.87-1.27-1.3-2.68-1.3-4.23zm0 0M835.55 235.94v-14.28h1.84v14.28zM848.83 231.06c0 1.38-.5 2.56-1.48 3.55-1 1-2.18 1.48-3.56 1.48-1.4 0-2.56-.5-3.55-1.47-1-.97-1.48-2.16-1.48-3.54 0-1.4.5-2.58 1.48-3.56 1-.98 2.16-1.47 3.54-1.47 1.37 0 2.56.5 3.55 1.47 1 .98 1.48 2.17 1.48 3.56zm-1.85 0c.07-.74-.1-1.4-.5-2-.4-.63-.97-1.05-1.66-1.3-.7-.22-1.38-.22-2.07 0-.7.25-1.24.68-1.63 1.3-.4.6-.6 1.26-.53 2 0 .88.3 1.63.93 2.26.63.63 1.38.94 2.28.94.9 0 1.67-.3 2.3-.94.6-.63.93-1.38.93-2.26zM857.13 235.94v-1.36H857c-.33.53-.77.93-1.32 1.23-.55.3-1.15.46-1.77.46-2.52 0-3.72-1.7-3.72-4.1v-6h1.84v5.7c0 2 1 2.72 2.42 2.72.76-.06 1.4-.38 1.9-.97.5-.57.72-1.24.67-2v-5.4h1.85v9.77h-1.75zM860.37 231.06c-.07-1.36.37-2.54 1.27-3.55.9-1 2.02-1.56 3.38-1.65.66-.02 1.3.12 1.88.4.6.3 1.08.73 1.45 1.27h.07l-.07-1.36v-4.5h1.84v14.28h-1.78v-1.36h-.07c-.37.55-.85.97-1.45 1.27-.6.3-1.22.43-1.88.4-1.36-.08-2.5-.64-3.38-1.65-.9-1-1.34-2.2-1.27-3.54zm8.07 0c.1-.73-.07-1.4-.46-2.03-.4-.62-.92-1.04-1.6-1.28-.7-.25-1.4-.25-2.08 0-.7.24-1.24.66-1.63 1.28-.4.63-.55 1.3-.46 2.03-.08.72.08 1.4.47 2 .4.63.94 1.06 1.63 1.3.7.25 1.38.25 2.07 0 .7-.24 1.22-.67 1.6-1.3.4-.6.57-1.28.47-2zM875.23 235.94v-14.28h4.88c.8-.03 1.52.15 2.2.52.7.37 1.23.9 1.65 1.56.4.66.6 1.4.62 2.17-.03.8-.2 1.5-.62 2.18-.42.66-.95 1.18-1.64 1.56-.68.37-1.4.54-2.2.52h-3v5.78h-1.85zm4.9-7.54c.7 0 1.3-.24 1.77-.73.48-.5.74-1.07.74-1.76 0-.68-.26-1.27-.74-1.76-.48-.48-1.08-.73-1.77-.73H877v5h3.08zM885.86 235.94v-14.28h1.84v14.28zM889.28 233c0-2.22 2-3.42 4.3-3.42.95-.03 1.84.18 2.67.6v-.28c-.05-.6-.25-1.1-.64-1.54-.38-.44-.84-.72-1.42-.83-.57-.12-1.13-.05-1.65.2-.53.26-.92.65-1.18 1.17l-1.68-.72c.46-.9 1.15-1.54 2.05-1.97.9-.4 1.84-.5 2.83-.3 1 .22 1.8.72 2.44 1.48.63.77.95 1.66 1 2.66v5.9h-1.75v-1.36h-.1c-.34.55-.8.97-1.37 1.27-.58.3-1.2.44-1.84.4-.62.07-1.2-.04-1.77-.3-.58-.3-1-.7-1.36-1.22-.33-.53-.52-1.1-.52-1.74zm7-1.27c-.72-.47-1.48-.68-2.33-.63-1.93 0-2.7 1-2.7 1.93.06.5.3.88.68 1.18.4.3.83.44 1.3.38.8 0 1.5-.27 2.08-.82.58-.55.9-1.23.95-2.03zM900.64 232.97v-5.13h-1.72v-1.68h1.72v-3h1.84v3h2.4v1.68h-2.4v5c0 1.1.5 1.6 1.34 1.6.3 0 .55-.05.83-.17l.64 1.57c-.5.2-.98.28-1.48.26-.58.07-1.13-.03-1.66-.3s-.92-.67-1.2-1.18c-.27-.52-.38-1.07-.32-1.65zM912.6 221.84l-.62 1.57c-.27-.1-.53-.16-.83-.15-.3-.02-.57.04-.85.2-.27.14-.48.35-.62.62-.13.27-.18.56-.16.86v1.23h2.46v1.68h-2.55v8.1h-1.84v-8.1h-1.85v-1.68h1.84v-1.3c-.03-.6.1-1.18.43-1.7.32-.54.76-.95 1.3-1.23.56-.3 1.13-.4 1.76-.35.5-.03 1.02.06 1.5.26zM922.6 231.06c0 1.38-.47 2.56-1.46 3.55-1 1-2.2 1.48-3.57 1.48-1.38 0-2.57-.5-3.56-1.47-.98-.97-1.47-2.16-1.47-3.54 0-1.4.5-2.58 1.48-3.56 1-.98 2.2-1.47 3.57-1.47 1.38 0 2.58.5 3.57 1.47 1 .98 1.47 2.17 1.47 3.56zm-1.83 0c.07-.74-.12-1.4-.5-2-.4-.63-.97-1.05-1.66-1.3-.68-.22-1.37-.22-2.06 0-.7.25-1.27.68-1.66 1.3-.4.6-.57 1.26-.5 2-.07.72.1 1.4.5 2 .4.62.97 1.04 1.66 1.28.7.23 1.38.23 2.07 0 .7-.24 1.27-.66 1.66-1.28.4-.6.58-1.28.5-2zM924.08 235.94v-9.78h1.77v1.6h.07c.25-.54.67-1 1.17-1.32.5-.33 1.07-.5 1.67-.5.5-.03.95.05 1.38.22l-.7 1.72c-.33-.1-.65-.15-1-.14-.48.02-.92.16-1.33.43-.42.27-.74.6-.95 1.05-.2.43-.32.9-.27 1.38v5.34zm0 0M931.14 226.16h1.75v1.36h.08c.35-.5.78-.9 1.3-1.2.54-.3 1.12-.45 1.72-.47.66-.05 1.26.1 1.84.44.57.33.98.8 1.24 1.42.36-.6.87-1.04 1.47-1.38.6-.34 1.26-.5 1.95-.5 2.4 0 3.5 1.7 3.5 4.12v5.98h-1.84v-5.7c0-2-.78-2.72-2.18-2.72-1.4 0-2.5 1.52-2.5 3v5.4h-1.83v-5.68c0-2-.78-2.72-2.18-2.72-1.4 0-2.5 1.52-2.5 3v5.4h-1.85v-9.75z" fill="#737373"/><path d="M734.38 235.95l-2.88 5h-7.52c-.34 0-.64-.1-.94-.26-.3-.18-.53-.4-.7-.7l-6.06-10.6c-.16-.3-.26-.6-.26-.94 0-.33.1-.64.26-.93l2.3-4.05 2.85 5 4.32 7.47zm0 0" fill="#ffcc40"/><path d="M743.88 229.4l-6.1 10.6c-.16.3-.4.52-.7.7-.3.16-.6.24-.93.24h-4.65l2.88-5 4.32-7.47-4.32-7.48h5.68l3.77 6.54c.16.3.28.6.28.93 0 .33-.06.64-.22.93z" fill="#da4437"/><path d="M740.06 221h-14.3l-4.3 7.47-2.88-5 3.77-6.53c.16-.3.4-.52.7-.7.3-.16.6-.24.93-.24h12.17c.34 0 .64.08.94.25.3.17.52.4.68.7z" fill="#4284f3"/><path d="M734.38 221l4.32 7.47-4.32 7.48h-8.63l-4.3-7.48 4.3-7.48z" fill="#dfdfdf"/><path d="M726.33 228.47c0-2.06 1.68-3.74 3.75-3.74 2.07 0 3.75 1.68 3.75 3.74 0 2.06-1.68 3.74-3.75 3.74-2.07 0-3.75-1.66-3.75-3.73z" fill="#fff"/><path d="M722.35 217.1c.16-.3.4-.52.7-.7.3-.16.6-.24.93-.24h12.17c.34 0 .64.08.94.25.3.18.52.4.68.7l2.28 3.9-2.28-4.06c-.16-.3-.4-.52-.7-.7-.3-.16-.6-.24-.93-.24h-12.17c-.34 0-.64.08-.94.25-.3.17-.53.4-.7.7l-3.76 6.53v.08z" fill="#fff" fill-opacity=".2"/><path d="M721.45 228.47l4.3-7.48h14.35l-.07-.17h-14.28l-4.3 7.48" fill="#1a237e" fill-opacity=".2"/><path d="M716.28 227.7l2.3-4 2.87 5 4.3 7.47h8.56l.08-.16h-8.63l-4.3-7.53-2.87-5-2.33 4c-.18.3-.25.65-.23 1 .03-.28.12-.54.26-.78zm0 0" fill="#fff" fill-opacity=".2"/><path d="M731.6 240.78h-7.62c-.34 0-.64-.08-.94-.25-.3-.17-.53-.4-.7-.7l-6.06-10.58c-.14-.26-.23-.55-.26-.85-.02.35.07.7.26 1l6.07 10.6c.16.3.4.52.7.7.3.16.6.24.93.24h7.52z" fill="#be360c"/><path d="M738.8 228.47l-4.33-7.48h-.1l4.33 7.47zM743.88 229.25l-6.1 10.6c-.16.28-.4.5-.7.68-.3.17-.6.25-.93.25h-4.56l-.1.16h4.65c.34 0 .64-.08.94-.25.3-.18.52-.4.68-.7l6.1-10.6c.18-.3.25-.64.23-1-.02.3-.1.6-.22.85zm0 0" fill="#3e2723"/><path d="M740.06 221.15l3.77 6.55c.14.27.23.55.25.85.03-.36-.07-.7-.25-1l-3.77-6.56h-5.68l.1.15M734.38 236.1l4.4-7.63h-.08l-4.32 7.48-2.88 5h.1z" fill="#fff"/><path d="M743.88 227.54l-3.82-6.55-2.28-4.06c-.16-.3-.4-.52-.7-.7-.3-.16-.6-.24-.93-.24h-12.17c-.34 0-.64.08-.94.25-.3.17-.53.4-.7.7l-6.06 10.6c-.16.28-.26.6-.26.92 0 .34.1.65.26.94l6.07 10.6c.16.3.4.52.7.7.3.16.6.24.93.24h12.17c.34 0 .64-.08.94-.25.3-.18.52-.4.68-.7l6.1-10.6c.16-.28.25-.6.25-.93 0-.33-.1-.64-.25-.93z" fill="url(#a)"/><path d="M1180 262c0-1.1.9-2 2-2h276c1.1 0 2 .9 2 2v456c0 1.1-.9 2-2 2h-276c-1.1 0-2-.9-2-2z" fill="#ede7f6"/><use xlink:href="#b" transform="matrix(1,0,0,1,1196,276) translate(0 16.69921875)"/><path d="M120 286c0-3.3 2.7-6 6-6h408c3.3 0 6 2.7 6 6v468c0 3.3-2.7 6-6 6H126c-3.3 0-6-2.7-6-6z" stroke="#248814" stroke-width="3" fill="#fff" fill-opacity="0"/><path d="M120 280h56v56h-56v-56z" stroke="#fff" stroke-opacity="0" fill="#248814"/><path d="M151.76 308.3h-1.18v-1.1c-.12-1.73-1.48-3.07-3.2-3.2-1.9-.13-3.54 1.3-3.67 3.2v1.07h-1.17c-.44 0-.8.36-.8.8v6.13c0 .44.36.8.8.8h9.23c.44 0 .8-.36.8-.8v-6.1c0-.44-.36-.8-.8-.8zm-6.4-1.06c.1-1.02 1-1.77 2-1.67.9.08 1.58.77 1.67 1.67v1.06h-3.72zm5.65 7.08h-7.67v-4.42h7.63z" stroke="#fff" stroke-opacity="0" fill="#fff"/><path d="M162.27 305.74c-.08-2.44-1.58-4.47-3.87-5.3-1.58-.46-3.16-.13-4.4.9-.68-1.44-1.47-2.6-2.6-3.75-3.24-3.36-7.94-4.3-12.18-2.4-4.04 1.9-6.4 5.63-6.54 10.05v.7c-3.4.98-5.66 4.08-5.5 7.65v.63c.4 4.28 3.92 7.52 8.2 7.47h26s7.42-.63 7.42-8.1c.04-3.9-2.66-7.2-6.53-7.86zm-.96 14.4h-25.9c-3.47.05-6.3-2.53-6.6-5.97v-.52c-.15-3.05 1.93-5.7 4.92-6.3.38-.12.63-.48.6-.9-.06-.4-.06-.73 0-1.14.07-3.78 2.1-6.94 5.52-8.6 1.25-.56 2.4-.8 3.83-.84 2.62.08 4.87 1.04 6.7 2.94 1.25 1.3 2.04 2.6 2.62 4.3.03.15.1.28.24.37.37.27.87.2 1.12-.17.83-1.18 2.25-1.67 3.62-1.3 1.8.72 2.87 2.4 2.83 4.32-.07.4.22.82.64.9 3.57.36 6.2 3.55 5.82 7.12-.3 3.13-2.7 5.52-5.82 5.85z" stroke="#fff" stroke-opacity="0" fill="#fff"/><use xlink:href="#c" transform="matrix(1,0,0,1,191.00000000000003,300) translate(0 14.4)"/><use xlink:href="#d" transform="matrix(1,0,0,1,191.00000000000003,300) translate(55.5 14.4)"/><use xlink:href="#e" transform="matrix(1,0,0,1,191.00000000000003,300) translate(116.4 14.4)"/><path d="M80 206c0-3.3 2.7-6 6-6h488c3.3 0 6 2.7 6 6v608c0 3.3-2.7 6-6 6H86c-3.3 0-6-2.7-6-6z" stroke="#232f3e" stroke-width="3" fill="#fff" fill-opacity="0"/><path d="M80 200h56v56H80v-56z" stroke="#fff" stroke-opacity="0" fill="#232f3e"/><path d="M120.88 241.22h-25c-4.13.05-7.57-3.1-7.9-7.2v-.64c-.15-3.4 1.97-6.38 5.25-7.36v-.66c.12-4.22 2.44-7.75 6.24-9.57 4.12-1.86 8.73-.96 11.8 2.3 1.1 1.1 1.85 2.2 2.45 3.6 1.2-1 2.72-1.32 4.24-.9 2.24.8 3.68 2.74 3.76 5.1 3.68.65 6.32 3.8 6.28 7.56 0 7.07-7.04 7.73-7.12 7.76zm-26.7-13.88c-2.83.6-4.75 3.14-4.6 6.04v.53c.3 3.33 3.1 5.84 6.4 5.76h24.98c3.04-.3 5.4-2.64 5.68-5.7.28-3.43-2.24-6.5-5.68-6.78-.44-.05-.72-.44-.64-.87.08-1.83-1-3.44-2.72-4.13-1.32-.37-2.64.13-3.44 1.24-.2.25-.44.38-.76.33-.28-.05-.48-.24-.6-.5-.6-1.6-1.4-2.85-2.6-4.04-2.68-2.8-6.6-3.6-10.13-2-3.24 1.6-5.2 4.63-5.32 8.24-.04.4-.04.74 0 1.14.04.4-.2.76-.6.84z" stroke="#fff" stroke-opacity="0" fill="#fff"/><use xlink:href="#f" transform="matrix(1,0,0,1,151,220) translate(0 14.4)"/><use xlink:href="#g" transform="matrix(1,0,0,1,151,220) translate(45.3 14.4)"/><path d="M170 366c0-3.3 2.7-6 6-6h308c3.3 0 6 2.7 6 6v328c0 3.3-2.7 6-6 6H176c-3.3 0-6-2.7-6-6z" fill="#248814" fill-opacity=".13"/><path d="M170 360h56v56h-56v-56z" stroke="#fff" stroke-opacity="0" fill="#248814"/><path d="M213.38 382.18c-.15-.17-.34-.25-.56-.25h-5.15v-5.58c-.03-2.54-.96-4.7-2.84-6.4-1.9-1.84-4.15-2.75-6.77-2.75-2.65 0-4.9.83-6.8 2.62-1.9 1.7-2.87 3.87-2.9 6.4v5.66h-5.15c-.24 0-.43.1-.58.25-.16.17-.22.34-.22.6V408c0 .43.34.8.8.8h29.6c.46 0 .8-.37.8-.8v-25.28c0-.2-.06-.38-.22-.54zm-23.46-5.9c.03-2.13.8-3.88 2.37-5.3 1.6-1.5 3.52-2.2 5.73-2.2 2.22 0 4.12.75 5.7 2.25 1.54 1.4 2.32 3.2 2.32 5.32v5.58H189.9zm22.1 30.94h-28.03v-23.7h28z" stroke="#fff" stroke-opacity="0" fill="#fff"/><path d="M197.2 397.3v6.25h1.6v-6.23c2.13-.4 3.62-2.2 3.63-4.35 0-2.43-1.97-4.4-4.4-4.43-2.2-.03-4.06 1.5-4.44 3.68-.42 2.4 1.2 4.68 3.6 5.1zm.82-7.15c.78 0 1.44.27 2 .82.54.56.82 1.22.8 2 .03 1.55-1.2 2.8-2.74 2.82h-.06c-1.56.1-2.92-1.06-3.04-2.62-.12-1.56 1.05-2.93 2.6-3.03.16-.02.28-.02.44 0z" stroke="#fff" stroke-opacity="0" fill="#fff"/><use xlink:href="#h" transform="matrix(1,0,0,1,241,380) translate(0 14.4)"/><use xlink:href="#i" transform="matrix(1,0,0,1,241,380) translate(53.900000000000006 14.4)"/><path d="M260 520c-22.08 0-40-17.92-40-40s17.92-40 40-40 40 17.92 40 40-17.92 40-40 40zm0-76.56c-20.24 0-36.56 16.32-36.56 36.56 0 20.24 16.32 36.56 36.56 36.56 20.24 0 36.56-16.32 36.56-36.56 0-20.24-16.32-36.56-36.56-36.56z" stroke="#fff" stroke-opacity="0" fill="#693cc5"/><path d="M266.8 457.26l-6.8-6.8-6.8 6.8-2.4-2.4 7.95-8c.67-.65 1.75-.65 2.4 0h.03l7.96 8z" stroke="#fff" stroke-opacity="0" fill="#693cc5"/><path d="M258.3 449.36h3.4v61.28h-3.4v-61.28z" stroke="#fff" stroke-opacity="0" fill="#693cc5"/><path d="M260 513.62c-.48 0-.87-.17-1.2-.5l-7.97-7.98 2.37-2.4 6.8 6.8 6.8-6.8 2.4 2.4-7.95 8c-.35.33-.77.5-1.25.48zM285.14 489.17l-2.4-2.37 6.8-6.8-6.8-6.8 2.4-2.4 8 7.95c.65.66.65 1.75 0 2.4v.03z" stroke="#fff" stroke-opacity="0" fill="#693cc5"/><path d="M229.36 478.3h61.28v3.4h-61.28v-3.4z" stroke="#fff" stroke-opacity="0" fill="#693cc5"/><path d="M234.86 489.17l-8-7.96c-.65-.65-.65-1.73 0-2.4l8-7.97 2.42 2.36-6.8 6.8 6.8 6.8z" stroke="#fff" stroke-opacity="0" fill="#693cc5"/><use xlink:href="#j" transform="matrix(1,0,0,1,190,528.9999999999814) translate(21.944444444444443 17.77777777777778)"/><use xlink:href="#k" transform="matrix(1,0,0,1,190,528.9999999999814) translate(28.672839506172842 44.44444444444444)"/><path d="M417.56 616.24h-35.12c-.92 0-1.7-.76-1.7-1.7V587.4c0-.93.78-1.7 1.7-1.7h35.12c.92 0 1.7.77 1.7 1.7v27.13c0 .95-.78 1.7-1.7 1.7zm-33.42-3.4h31.72v-23.72h-31.72z" stroke="#fff" stroke-opacity="0" fill="#693cc5"/><path d="M398.3 601.06h3.4v8.58h-3.4v-8.58zM411.25 587.07h-3.4v-7.6c0-2.25-.77-4.17-2.3-5.82-1.5-1.58-3.36-2.4-5.54-2.4-4.4.1-7.93 3.72-7.88 8.12v7.68h-3.4v-7.68c-.05-6.28 5-11.45 11.3-11.5 3.12 0 5.78 1.13 7.94 3.4 2.2 2.3 3.27 5 3.25 8.17z" stroke="#fff" stroke-opacity="0" fill="#693cc5"/><path d="M400 633.8c-22.08 0-40-17.93-40-40 0-22.1 17.92-40 40-40s40 17.9 40 40c0 22.07-17.92 40-40 40zm0-76.57c-20.24 0-36.56 16.32-36.56 36.56 0 20.23 16.32 36.55 36.56 36.55 20.24 0 36.56-16.32 36.56-36.56 0-20.25-16.32-36.57-36.56-36.57z" stroke="#fff" stroke-opacity="0" fill="#693cc5"/><path d="M400 604.28c-3.15 0-5.7-2.54-5.72-5.7 0-3.14 2.53-5.7 5.7-5.7 3.14-.02 5.7 2.52 5.7 5.68 0 3.16-2.54 5.7-5.7 5.72zm0-8h-.03c-1.28.02-2.3 1.06-2.28 2.33 0 1.27 1.03 2.3 2.3 2.3 1.27-.02 2.3-1.06 2.28-2.33 0-1.25-1.02-2.28-2.3-2.28z" stroke="#fff" stroke-opacity="0" fill="#693cc5"/><use xlink:href="#l" transform="matrix(1,0,0,1,330,642.79) translate(0.308641975308646 17.77777777777778)"/><use xlink:href="#m" transform="matrix(1,0,0,1,330,642.79) translate(52.098765432098766 17.77777777777778)"/><path d="M359 593.8h-23c-3.3 0-6-2.7-6-6V486c0-3.3-2.7-6-6-6h-5.5" stroke="#5e5e5e" stroke-width="2" fill="none"/><path d="M360 593.8l.04 1h-1.07v-2h1.1z" fill="#5e5e5e"/><path d="M303.24 480l14.26-4.64v9.28z" stroke="#5e5e5e" stroke-width="2" fill="#5e5e5e"/><path d="M1382.46 474.2l-26.36-45.3c-2.05-3.63-5.64-5.68-9.86-5.8h-52.48c-4.22.12-7.8 2.17-9.86 5.8l-26.36 45.18c-2.05 3.53-2.05 7.63 0 11.27l26.36 45.5c2.05 3.77 5.5 5.93 9.86 6.04h52.48c4.22-.12 7.8-2.28 9.86-6.04l26.36-45.17c2.05-3.77 2.05-7.86 0-11.5z" stroke="#000" stroke-opacity="0" fill="#4285f4"/><path d="M1374.87 498.58l-43.25-42.83-3.1 6.65-6.75-6.65-3.1 6.65-6.66-6.65-1.65 8.03-5.96.97-1.2 5.2-7.7 1.86 6.9 6.82-6.82 2.92 6.83 6.74-6.9 3 46.12 45.6h4.68c4.2-.18 7.78-2.3 9.84-6.02z" stroke="#000" stroke-opacity="0" fill-opacity=".07"/><path d="M1325.82 473.16h-11.4c-.67 0-1.2.53-1.2 1.2v11.3c0 .64.53 1.2 1.2 1.2h11.4c.66-.04 1.17-.57 1.17-1.2v-11.3c0-.67-.55-1.2-1.22-1.2" stroke="#000" stroke-opacity="0" fill="#fff"/><path d="M1343.88 472.23c.6 0 1.1-.44 1.1-1.08v-1.72c0-.6-.5-1.08-1.1-1.08h-5.56v-5.17c0-.7-.55-1.23-1.2-1.23h-5.2v-5.46c0-.6-.5-1.1-1.1-1.1h-1.8c-.6 0-1.04.5-1.04 1.1v5.5h-5.86v-5.5c-.05-.6-.55-1.1-1.15-1.1h-1.73c-.6 0-1.1.5-1.1 1.1v5.5h-5.86v-5.5c0-.6-.5-1.1-1.1-1.1h-1.73c-.65 0-1.1.5-1.1 1.1v5.5h-5.22c-.64 0-1.2.5-1.2 1.18v5.12h-5.55c-.6 0-1.1.5-1.1 1.08v1.77c0 .6.5 1.08 1.1 1.08h5.56v5.75h-5.56c-.6 0-1.1.5-1.1 1.1v1.8c0 .6.5 1.1 1.1 1.1h5.56v5.8h-5.56c-.6 0-1.1.48-1.1 1.07v1.77c0 .6.5 1.03 1.1 1.03h5.56v5.17c0 .64.5 1.18 1.2 1.18h5.2v5.5c0 .6.46 1.1 1.1 1.1h1.74c.6 0 1.1-.5 1.1-1.1V498h5.86v5.5c0 .6.5 1.1 1.1 1.1h1.73c.6 0 1.1-.5 1.1-1.1V498h5.9v5.5c0 .6.5 1.1 1.1 1.1h1.8c.6 0 1.1-.5 1.1-1.1V498h5.2c.65-.05 1.15-.54 1.15-1.18v-5.17h5.56c.6 0 1.1-.5 1.1-1.08v-1.72c0-.64-.5-1.08-1.1-1.08h-5.56v-5.8h5.56c.6 0 1.1-.5 1.1-1.08v-1.8-.03c0-.6-.5-1.1-1.1-1.1h-5.56v-5.74h5.56zm-9.64 21.78h-28.22v-27.97h28.22z" stroke="#000" stroke-opacity="0" fill="#fff"/><use xlink:href="#n" transform="matrix(1,0,0,1,1256,541.8949999999813) translate(35.01851851851852 17.77777777777778)"/><use xlink:href="#o" transform="matrix(1,0,0,1,1256,541.8949999999813) translate(7.271604938271608 44.44444444444444)"/><use xlink:href="#p" transform="matrix(1,0,0,1,1256,541.8949999999813) translate(96.03703703703704 44.44444444444444)"/><use xlink:href="#q" transform="matrix(1,0,0,1,1256,541.8949999999813) translate(39.95679012345679 71.11111111111111)"/><path d="M1706.46 474.2l-26.36-45.3c-2.05-3.63-5.64-5.68-9.86-5.8h-52.48c-4.22.12-7.8 2.17-9.86 5.8l-26.36 45.18c-2.05 3.53-2.05 7.63 0 11.27l26.36 45.5c2.05 3.77 5.5 5.93 9.86 6.04h52.48c4.22-.12 7.8-2.28 9.86-6.04l26.36-45.17c2.05-3.77 2.05-7.86 0-11.5z" stroke="#000" stroke-opacity="0" fill="#4285f4"/><path d="M1680.1 530.84l17.55-30.12-37.02-36.68-16.65-4.4-14.87 5.48-5.8 14.83 4.62 16.6 40.74 40.32h1.63c4.23-.16 7.8-2.32 9.8-6.03z" stroke="#000" stroke-opacity="0" fill-opacity=".07"/><path d="M1644 457.04c-12.8 0-23.18 10.27-23.18 22.94 0 12.66 10.38 22.94 23.17 22.94 12.8 0 23.17-10.28 23.17-22.94 0-12.67-10.38-22.94-23.18-22.94m0 40.37c-9.74 0-17.57-7.8-17.57-17.42 0-9.6 7.83-17.4 17.56-17.4 9.73 0 17.56 7.8 17.56 17.4 0 9.63-7.83 17.43-17.57 17.43" stroke="#000" stroke-opacity="0" fill="#fff"/><path d="M1633 479.1v7.13c1.12 1.9 2.48 3.28 4.38 4.43V479.1zM1641.67 473.06v19.23c1.5.28 2.85.28 4.37 0v-19.24zM1650.76 482.06v8.47c1.92-1.2 3.3-2.64 4.38-4.6v-3.87zM1660.67 494.12l-2.4 2.38c-.42.42-.42 1.1 0 1.52l9.1 9c.43.43 1.1.43 1.55 0l2.4-2.37c.42-.42.42-1.08 0-1.5l-9.12-9.03c-.43-.42-1.1-.42-1.53 0" stroke="#000" stroke-opacity="0" fill="#fff"/><use xlink:href="#r" transform="matrix(1,0,0,1,1580,541.8949999999813) translate(17.76543209876543 17.77777777777778)"/><path d="M926.46 514.42l-26.36-45.3c-2.05-3.63-5.64-5.68-9.86-5.8h-52.48c-4.22.12-7.8 2.17-9.86 5.8l-26.36 45.2c-2.05 3.63-2.05 7.73 0 11.25l26.36 45.52c2.05 3.74 5.5 5.9 9.86 6.02h52.48c4.22-.1 7.8-2.28 9.86-6.03l26.36-45.2c2.05-3.74 2.05-7.84 0-11.48z" stroke="#000" stroke-opacity="0" fill="#4285f4"/><path d="M927.97 519.4l-35.1-34.74-16.47 16.18 8.28 8.13v10.72l-8.38 1.56-6.78-6.75-7.58-.36-8.78 6.47-8.57-8.58-16.37 16.26 49.27 48.8h12.77c4.3-.2 7.78-2.32 9.87-6.02l26.23-45.18c1.2-2.13 1.7-4.16 1.6-6.47z" stroke="#000" stroke-opacity="0" fill-opacity=".07"/><path d="M870.47 517.73h15.17v4.94h-15.17v-4.94z" stroke="#000" stroke-opacity="0" fill="#fff"/><path d="M882.14 499.17h5v42.08h-5v-42.08z" stroke="#000" stroke-opacity="0" fill="#fff"/><path d="M877.15 539.46h14.98c.66 0 1 .33 1 1v14.8c0 .67-.34 1-1 1h-14.98c-.66 0-1-.33-1-1v-14.8c0-.67.34-1 1-1zM877.15 484.38h14.98c.66 0 1 .33 1 1v14.8c0 .67-.34 1-1 1h-14.98c-.66 0-1-.33-1-1v-14.8c0-.67.34-1 1-1zM842.3 517.73h15.55v4.94H842.3v-4.94z" stroke="#000" stroke-opacity="0" fill="#fff"/><path d="M828.95 511.8h14.98c.66 0 1 .33 1 1v14.8c0 .66-.34 1-1 1h-14.98c-.66 0-1-.34-1-1v-14.8c0-.67.34-1 1-1zM864 528.13c-4.42 0-8-3.54-8-7.9 0-4.38 3.58-7.92 8-7.92 4.4 0 7.98 3.55 7.98 7.92s-3.58 7.9-8 7.9zm0-12.85c-2.77 0-5 2.2-5 4.94s2.23 4.95 5 4.95c2.76 0 5-2.2 5-4.95 0-2.74-2.24-4.94-5-4.94z" stroke="#000" stroke-opacity="0" fill="#fff"/><use xlink:href="#s" transform="matrix(1,0,0,1,800,582.1204687499627) translate(9.15432098765433 17.77777777777778)"/><use xlink:href="#t" transform="matrix(1,0,0,1,800,582.1204687499627) translate(73.22839506172839 17.77777777777778)"/><path d="M1039.04 424.14l-16.48-28.3c-1.28-2.28-3.52-3.56-6.16-3.63h-32.8c-2.64.08-4.88 1.36-6.16 3.64l-16.48 28.23c-1.28 2.2-1.28 4.77 0 7.04l16.48 28.46c1.28 2.35 3.44 3.7 6.16 3.77h32.8c2.64-.07 4.88-1.42 6.16-3.77l16.48-28.23c1.28-2.35 1.28-4.9 0-7.2z" stroke="#000" stroke-opacity="0" fill="#4285f4"/><path d="M1013.5 418.2l-1.28 2.5-2.54-2.5-11.8-4.04-7.6 4.03 13.58 13.4-2.2 1.63-5.56-5.45h-14.17l-1.3 3.83 32.02 31.7h3.77c2.64-.1 4.85-1.4 6.14-3.72l11.97-20.6z" stroke="#000" stroke-opacity="0" fill-opacity=".07"/><path d="M1013.55 431.6v5.74l-9.68-9.58 9.68-9.58v5.75h5.8v7.67zm-27.1-7.67h-5.8v7.67h5.8v5.74l9.67-9.58-9.68-9.58zm17.42 13.4v-5.73h-7.75v5.74h-5.8l9.68 9.6 9.68-9.6zm0-19.15v5.75h-7.75v-5.75h-5.8l9.68-9.58 9.68 9.58z" stroke="#000" stroke-opacity="0" fill="#fff"/><use xlink:href="#u" transform="matrix(1,0,0,1,959.9999999999999,468.33046874996285) translate(1.7222222222222285 15.999999999999998)"/><use xlink:href="#v" transform="matrix(1,0,0,1,959.9999999999999,468.33046874996285) translate(67.16666666666666 15.999999999999998)"/><path d="M1384.96 480h176.58" stroke="#5e5e5e" stroke-width="2" fill="none"/><path d="M1384.98 481h-1.13l.15-1.37-.1-.63h1.08z" fill="#5e5e5e"/><path d="M1576.8 480l-14.26 4.64v-9.28z" stroke="#5e5e5e" stroke-width="2" fill="#5e5e5e"/><path d="M1379.04 251.93l-16.48-28.3c-1.28-2.28-3.52-3.56-6.16-3.63h-32.8c-2.64.07-4.88 1.35-6.16 3.63l-16.48 28.23c-1.28 2.2-1.28 4.77 0 7.04l16.48 28.45c1.28 2.35 3.44 3.7 6.16 3.77h32.8c2.64-.07 4.88-1.42 6.16-3.77l16.48-28.23c1.28-2.35 1.28-4.9 0-7.2z" stroke="#000" stroke-opacity="0" fill="#4285f4"/><path d="M1342.55 240.83l-2.5-.45-2.57 5.4 2.18 2.12-.6 3.48 3.6 3.54-9.72 1-2.9-2.82-4.96 4.95 33.15 32.8c1.94-.6 3.36-1.76 4.4-3.47l9.8-17.02z" stroke="#000" stroke-opacity="0" fill-opacity=".07"/><path d="M1343.55 243.25c0 1.94-1.6 3.5-3.55 3.5-1.97 0-3.56-1.56-3.56-3.5 0-1.95 1.6-3.52 3.56-3.52s3.55 1.57 3.55 3.52zM1343.55 267.87c0 1.94-1.6 3.5-3.55 3.5-1.97 0-3.56-1.56-3.56-3.5 0-1.95 1.6-3.52 3.56-3.52s3.55 1.57 3.55 3.52zM1331.12 255.56c0 1.94-1.6 3.5-3.56 3.5s-3.55-1.56-3.55-3.5c0-1.95 1.6-3.52 3.56-3.52s3.56 1.57 3.56 3.52zM1355.98 255.56c0 1.94-1.6 3.5-3.55 3.5-1.96 0-3.55-1.56-3.55-3.5 0-1.95 1.6-3.52 3.55-3.52 1.96 0 3.55 1.57 3.55 3.52z" stroke="#000" stroke-opacity="0" fill="#fff"/><path d="M1339.1 268.83l-14.7-14.4h25l-10.3-10.2 1.8-1.92 14.7 14.4h-25l10.3 10.22-1.8 1.9z" stroke="#000" stroke-opacity="0" fill="#fff"/><path d="M1339.07 259.72h1.53v8.34h-1.53v-8.34zM1339.07 243.04h1.53v8.34h-1.53v-8.34z" stroke="#000" stroke-opacity="0" fill="#fff"/><use xlink:href="#w" transform="matrix(1,0,0,1,1300,296.11875) translate(11.049382716049386 17.77777777777778)"/><use xlink:href="#x" transform="matrix(1,0,0,1,1300,296.11875) translate(-0.6481481481481453 44.44444444444444)"/><path d="M807.18 450.25l-14-24.06c-1.1-1.95-3-3.03-5.24-3.1h-27.88c-2.24.07-4.15 1.15-5.24 3.1l-14 24c-1.1 1.86-1.1 4.04 0 5.97l14 24.18c1.1 2 2.93 3.15 5.24 3.2h27.88c2.24-.05 4.15-1.2 5.24-3.2l14-24c1.1-2 1.1-4.17 0-6.1z" stroke="#000" stroke-opacity="0" fill="#4285f4"/><path d="M787.1 440.37l-7.3 1.34-2 5.23-3.98-3.97-10.86 1.5-2.1 21.85 17.4 17.24h9.7c2.24-.1 4.12-1.2 5.25-3.2l12.53-21.54z" stroke="#000" stroke-opacity="0" fill-opacity=".07"/><path d="M781.3 453.86v8.8c0 .28-.25.5-.56.5h-16.17c-.28 0-.52-.22-.52-.5V446.6c0-.28.24-.52.52-.52h8.9c.3 0 .54-.24.54-.52v-2.25c0-.28-.23-.52-.54-.52h-12.2c-.3 0-.53.25-.53.53v22.6c0 .3.23.53.52.53h22.84c.27 0 .5-.24.5-.52v-12.08c0-.3-.23-.55-.5-.55h-2.28c-.3 0-.53.25-.53.56z" stroke="#000" stroke-opacity="0" fill="#fff"/><path d="M776.65 440.7v9.47c0 .3.23.52.53.52h9.56c.3 0 .53-.24.53-.53v-9.46c0-.28-.24-.52-.53-.52h-9.56c-.3 0-.53.24-.53.53zm7.43 5.4h-2.26c-.3 0-.53-.24-.53-.52v-2.24c0-.3.22-.53.52-.53h2.26c.3 0 .53.24.53.54v2.24c0 .28-.22.52-.52.52z" stroke="#000" stroke-opacity="0" fill="#fff"/><use xlink:href="#y" transform="matrix(1,0,0,1,740,488.5559374999814) translate(8.527777777777782 13.11111111111111)"/><use xlink:href="#z" transform="matrix(1,0,0,1,740,488.5559374999814) translate(44.78086419753086 13.11111111111111)"/><path d="M1039.04 585.72l-16.48-28.3c-1.28-2.28-3.52-3.56-6.16-3.63h-32.8c-2.64.06-4.88 1.34-6.16 3.62l-16.48 28.23c-1.28 2.2-1.28 4.77 0 7.04l16.48 28.44c1.28 2.35 3.44 3.7 6.16 3.77h32.8c2.64-.06 4.88-1.4 6.16-3.76l16.48-28.23c1.28-2.34 1.28-4.9 0-7.18z" stroke="#000" stroke-opacity="0" fill="#4285f4"/><path d="M1013.5 579.77l-1.28 2.5-2.54-2.5-11.8-4.03-7.6 4.03 13.58 13.42-2.2 1.6-5.56-5.45h-14.17l-1.3 3.84 32.02 31.7h3.77c2.64-.1 4.85-1.44 6.14-3.75l11.97-20.6z" stroke="#000" stroke-opacity="0" fill-opacity=".07"/><path d="M1013.55 593.17v5.75l-9.68-9.58 9.68-9.58v5.75h5.8v7.67zm-27.1-7.66h-5.8v7.67h5.8v5.75l9.67-9.58-9.68-9.58zm17.42 13.42v-5.75h-7.75v5.75h-5.8l9.68 9.6 9.68-9.6zm0-19.16v5.75h-7.75v-5.74h-5.8l9.68-9.6 9.68 9.6z" stroke="#000" stroke-opacity="0" fill="#fff"/><use xlink:href="#u" transform="matrix(1,0,0,1,959.9999999999999,629.9087499999999) translate(1.7222222222222285 15.999999999999998)"/><use xlink:href="#A" transform="matrix(1,0,0,1,959.9999999999999,629.9087499999999) translate(67.16666666666666 15.999999999999998)"/><path d="M1040.95 427.77H1164c3.3 0 6-2.7 6-6v-160.2c0-3.32 2.68-6 6-6h105.54" stroke="#5e5e5e" stroke-width="2" fill="none"/><path d="M1040.97 428.77h-1.1l.12-1.48-.12-.53h1.1z" fill="#5e5e5e"/><path d="M1296.8 255.56l-14.26 4.63v-9.28z" stroke="#5e5e5e" stroke-width="2" fill="#5e5e5e"/><path d="M1040.95 589.35H1164c3.3 0 6-2.7 6-6v-321.8c0-3.3 2.68-6 6-6h105.54" stroke="#5e5e5e" stroke-width="2" fill="none"/><path d="M1040.97 590.35h-1.1l.12-1.48-.12-.52h1.1z" fill="#5e5e5e"/><path d="M1296.8 255.56l-14.26 4.63v-9.28z" stroke="#5e5e5e" stroke-width="2" fill="#5e5e5e"/><path d="M959.04 427.77H950c-3.32 0-6 2.7-6 6v84" stroke="#5e5e5e" stroke-width="2" fill="none"/><path d="M960.02 428.06l.16.7H959v-2h1.12z" fill="#5e5e5e"/><path d="M931.16 519.73l13.4-6.74 1.4 9.15z" stroke="#5e5e5e" stroke-width="2" fill="#5e5e5e"/><path d="M959.04 589.35H950c-3.32 0-6-2.7-6-6V522.7" stroke="#5e5e5e" stroke-width="2" fill="none"/><path d="M960.02 589.64l.16.7H959v-2h1.12z" fill="#5e5e5e"/><path d="M931.16 520.72l14.8-2.42-1.4 9.16z" stroke="#5e5e5e" stroke-width="2" fill="#5e5e5e"/><path d="M808.9 453.33h16.3" stroke="#5e5e5e" stroke-width="2" fill="none"/><path d="M808.94 454.33h-1.04l.02-2h1.02z" fill="#5e5e5e"/><path d="M830.45 462.15l-11.28-9.9 7.97-4.73z" stroke="#5e5e5e" stroke-width="2" fill="#5e5e5e"/><path d="M609.44 594.8H458.5v-2h150.94zm223.7-6.88l-.94 3.42-2.53 2.53-3.4.92H680.98v-2h145l2.64-.72 1.77-1.78.73-2.64V576.5h2z" fill="#5e5e5e"/><path d="M833.1 576.07l.03.45h-2v-1.63zM457.5 598.43l-14.26-4.64 14.26-4.65z" fill="#5e5e5e"/><path d="M458.5 599.8l-18.5-6 18.5-6.02zm-12.03-6l10.03 3.25v-6.52z" fill="#5e5e5e"/><g><use xlink:href="#B" transform="matrix(1,0,0,1,609.4361969947636,583.1233333333333) translate(0 14.222222222222223)"/><use xlink:href="#C" transform="matrix(1,0,0,1,609.4361969947636,583.1233333333333) translate(61.67901234567902 14.222222222222223)"/></g><path d="M401 667.66l.7 2.64 1.8 1.78 2.63.7h207.43v2h-207.7l-3.4-.9-2.54-2.54-.92-3.42V652.3h2zm495.86.26l-.92 3.42-2.53 2.53-3.4.92H685.1v-2h204.63l2.64-.72 1.78-1.78.7-2.64v-91.2h2z" fill="#5e5e5e"/><path d="M896.86 576.5h-2v-.45l.15-.05 1.86-1.15zM404.64 651.3h-9.28l4.64-14.27z" fill="#5e5e5e"/><path d="M406 652.3h-12l6-18.5zm-9.26-2h6.52L400 640.25z" fill="#5e5e5e"/><g><use xlink:href="#B" transform="matrix(1,0,0,1,613.5555555555554,663.1233333333333) translate(0 14.222222222222223)"/><use xlink:href="#D" transform="matrix(1,0,0,1,613.5555555555554,663.1233333333333) translate(61.67901234567902 14.222222222222223)"/></g><defs><radialGradient gradientUnits="userSpaceOnUse" id="a" fx="-124860.8" fy="150240.8" cx="127340.8" cy="-149280.8" r="11685.6"><stop offset="0%" stop-color="#fff" stop-opacity=".1"/><stop offset="100%" stop-color="#fff" stop-opacity="0"/></radialGradient><path d="M631-137c179 0 314-70 314-231 0-71-25-127-75-166s-141-77-272-115c-165-47-285-106-360-175s-112-154-112-255c0-245 231-397 495-397 206 0 369 89 449 218 43 68 65 142 65 223H942c0-184-129-283-321-283-172 0-299 76-301 236 0 59 26 109 76 150s135 78 256 113c205 59 345 116 436 256 35 53 50 119 50 193-2 256-231 398-507 390C333 12 90-129 80-422h193c0 187 160 285 358 285" id="E"/><path d="M491 20c-241-1-355-148-355-398v-704h185v699c0 164 67 246 200 246 141 0 235-53 282-158v-787h185V0H812l-4-107C736-22 630 20 491 20" id="F"/><path d="M634-1102c292 0 422 254 422 573 0 298-143 547-420 549-137 0-242-48-317-145L310 0H140v-1536h185v573c75-93 178-139 309-139zm-44 965c207 0 281-175 281-413 0-224-79-395-283-395-122 0-210 57-263 170v468c57 113 145 170 265 170" id="G"/><path d="M589-945c-131 0-219 81-264 174V0H140v-1082h175l6 136c83-104 191-156 324-156 229 0 346 129 346 387V0H806v-716c-2-153-65-229-217-229" id="H"/><path d="M599-131c141 0 220-65 285-146l113 88C906-50 770 20 589 20 281 21 93-214 93-545c0-223 93-397 233-485 74-48 154-72 240-72 300 2 449 218 445 537v77H278c0 197 129 357 321 357zm227-509c-3-180-88-310-260-310-170 0-264 140-282 310h542" id="I"/><path d="M456 20C285 20 205-92 206-268v-671H9v-143h197v-262h185v262h202v143H391v671c-9 125 92 149 207 118V0c-49 13-96 20-142 20" id="J"/><path d="M1098-255l208-827h185L1176 0h-150L763-820 507 0H357L43-1082h184l213 810 252-810h149" id="K"/><path d="M584 20C278 26 81-227 91-551c10-320 175-545 491-551 308-5 503 247 494 573-9 322-175 543-492 549zm-2-970c-208 0-305 185-305 421 0 216 106 398 307 398 211 0 307-186 307-420 0-214-109-399-309-399" id="L"/><path d="M663-916c-163-27-288 18-338 148V0H140v-1082h180l3 125c61-97 147-145 258-145 36 0 63 5 82 14v172" id="M"/><path d="M442-501L326-380V0H141v-1536h185v929c135-169 291-317 436-475h225L566-630 1036 0H819" id="N"/><g id="b"><use transform="matrix(0.0087890625,0,0,0.0087890625,0,0)" xlink:href="#E"/><use transform="matrix(0.0087890625,0,0,0.0087890625,10.6787109375,0)" xlink:href="#F"/><use transform="matrix(0.0087890625,0,0,0.0087890625,20.6015625,0)" xlink:href="#G"/><use transform="matrix(0.0087890625,0,0,0.0087890625,30.7001953125,0)" xlink:href="#H"/><use transform="matrix(0.0087890625,0,0,0.0087890625,40.6318359375,0)" xlink:href="#I"/><use transform="matrix(0.0087890625,0,0,0.0087890625,50.16796875,0)" xlink:href="#J"/><use transform="matrix(0.0087890625,0,0,0.0087890625,56.0478515625,0)" xlink:href="#K"/><use transform="matrix(0.0087890625,0,0,0.0087890625,69.57421875,0)" xlink:href="#L"/><use transform="matrix(0.0087890625,0,0,0.0087890625,79.83984375,0)" xlink:href="#M"/><use transform="matrix(0.0087890625,0,0,0.0087890625,85.9306640625,0)" xlink:href="#N"/></g><path fill="#248814" d="M137 0h-34L2-248h35l83 218 83-218h36" id="O"/><path fill="#248814" d="M24-231v-30h32v30H24zM24 0v-190h32V0H24" id="P"/><path fill="#248814" d="M114-163C36-179 61-72 57 0H25l-1-190h30c1 12-1 29 2 39 6-27 23-49 58-41v29" id="Q"/><path fill="#248814" d="M59-47c-2 24 18 29 38 22v24C64 9 27 4 27-40v-127H5v-23h24l9-43h21v43h35v23H59v120" id="R"/><path fill="#248814" d="M84 4C-5 8 30-112 23-190h32v120c0 31 7 50 39 49 72-2 45-101 50-169h31l1 190h-30c-1-10 1-25-2-33-11 22-28 36-60 37" id="S"/><path fill="#248814" d="M141-36C126-15 110 5 73 4 37 3 15-17 15-53c-1-64 63-63 125-63 3-35-9-54-41-54-24 1-41 7-42 31l-33-3c5-37 33-52 76-52 45 0 72 20 72 64v82c-1 20 7 32 28 27v20c-31 9-61-2-59-35zM48-53c0 20 12 33 32 33 41-3 63-29 60-74-43 2-92-5-92 41" id="T"/><path fill="#248814" d="M24 0v-261h32V0H24" id="U"/><g id="c"><use transform="matrix(0.05,0,0,0.05,0,0)" xlink:href="#O"/><use transform="matrix(0.05,0,0,0.05,11.65,0)" xlink:href="#P"/><use transform="matrix(0.05,0,0,0.05,15.600000000000001,0)" xlink:href="#Q"/><use transform="matrix(0.05,0,0,0.05,21.55,0)" xlink:href="#R"/><use transform="matrix(0.05,0,0,0.05,26.55,0)" xlink:href="#S"/><use transform="matrix(0.05,0,0,0.05,36.55,0)" xlink:href="#T"/><use transform="matrix(0.05,0,0,0.05,46.55,0)" xlink:href="#U"/></g><path fill="#248814" d="M30-248c87 1 191-15 191 75 0 78-77 80-158 76V0H30v-248zm33 125c57 0 124 11 124-50 0-59-68-47-124-48v98" id="V"/><path fill="#248814" d="M108 0H70L1-190h34L89-25l56-165h34" id="W"/><path fill="#248814" d="M100-194c63 0 86 42 84 106H49c0 40 14 67 53 68 26 1 43-12 49-29l28 8c-11 28-37 45-77 45C44 4 14-33 15-96c1-61 26-98 85-98zm52 81c6-60-76-77-97-28-3 7-6 17-6 28h103" id="X"/><g id="d"><use transform="matrix(0.05,0,0,0.05,0,0)" xlink:href="#V"/><use transform="matrix(0.05,0,0,0.05,12,0)" xlink:href="#Q"/><use transform="matrix(0.05,0,0,0.05,17.95,0)" xlink:href="#P"/><use transform="matrix(0.05,0,0,0.05,21.9,0)" xlink:href="#W"/><use transform="matrix(0.05,0,0,0.05,30.899999999999995,0)" xlink:href="#T"/><use transform="matrix(0.05,0,0,0.05,40.9,0)" xlink:href="#R"/><use transform="matrix(0.05,0,0,0.05,45.9,0)" xlink:href="#X"/></g><path fill="#248814" d="M212-179c-10-28-35-45-73-45-59 0-87 40-87 99 0 60 29 101 89 101 43 0 62-24 78-52l27 14C228-24 195 4 139 4 59 4 22-46 18-125c-6-104 99-153 187-111 19 9 31 26 39 46" id="Y"/><path fill="#248814" d="M100-194c62-1 85 37 85 99 1 63-27 99-86 99S16-35 15-95c0-66 28-99 85-99zM99-20c44 1 53-31 53-75 0-43-8-75-51-75s-53 32-53 75 10 74 51 75" id="Z"/><path fill="#248814" d="M85-194c31 0 48 13 60 33l-1-100h32l1 261h-30c-2-10 0-23-3-31C134-8 116 4 85 4 32 4 16-35 15-94c0-66 23-100 70-100zm9 24c-40 0-46 34-46 75 0 40 6 74 45 74 42 0 51-32 51-76 0-42-9-74-50-73" id="aa"/><g id="e"><use transform="matrix(0.05,0,0,0.05,0,0)" xlink:href="#Y"/><use transform="matrix(0.05,0,0,0.05,12.950000000000001,0)" xlink:href="#U"/><use transform="matrix(0.05,0,0,0.05,16.900000000000002,0)" xlink:href="#Z"/><use transform="matrix(0.05,0,0,0.05,26.900000000000002,0)" xlink:href="#S"/><use transform="matrix(0.05,0,0,0.05,36.900000000000006,0)" xlink:href="#aa"/></g><path fill="#232f3e" d="M205 0l-28-72H64L36 0H1l101-248h38L239 0h-34zm-38-99l-47-123c-12 45-31 82-46 123h93" id="ab"/><path fill="#232f3e" d="M266 0h-40l-56-210L115 0H75L2-248h35L96-30l15-64 43-154h32l59 218 59-218h35" id="ac"/><path fill="#232f3e" d="M185-189c-5-48-123-54-124 2 14 75 158 14 163 119 3 78-121 87-175 55-17-10-28-26-33-46l33-7c5 56 141 63 141-1 0-78-155-14-162-118-5-82 145-84 179-34 5 7 8 16 11 25" id="ad"/><g id="f"><use transform="matrix(0.05,0,0,0.05,0,0)" xlink:href="#ab"/><use transform="matrix(0.05,0,0,0.05,11.35,0)" xlink:href="#ac"/><use transform="matrix(0.05,0,0,0.05,28.299999999999997,0)" xlink:href="#ad"/></g><path fill="#232f3e" d="M212-179c-10-28-35-45-73-45-59 0-87 40-87 99 0 60 29 101 89 101 43 0 62-24 78-52l27 14C228-24 195 4 139 4 59 4 22-46 18-125c-6-104 99-153 187-111 19 9 31 26 39 46" id="ae"/><path fill="#232f3e" d="M24 0v-261h32V0H24" id="af"/><path fill="#232f3e" d="M100-194c62-1 85 37 85 99 1 63-27 99-86 99S16-35 15-95c0-66 28-99 85-99zM99-20c44 1 53-31 53-75 0-43-8-75-51-75s-53 32-53 75 10 74 51 75" id="ag"/><path fill="#232f3e" d="M84 4C-5 8 30-112 23-190h32v120c0 31 7 50 39 49 72-2 45-101 50-169h31l1 190h-30c-1-10 1-25-2-33-11 22-28 36-60 37" id="ah"/><path fill="#232f3e" d="M85-194c31 0 48 13 60 33l-1-100h32l1 261h-30c-2-10 0-23-3-31C134-8 116 4 85 4 32 4 16-35 15-94c0-66 23-100 70-100zm9 24c-40 0-46 34-46 75 0 40 6 74 45 74 42 0 51-32 51-76 0-42-9-74-50-73" id="ai"/><g id="g"><use transform="matrix(0.05,0,0,0.05,0,0)" xlink:href="#ae"/><use transform="matrix(0.05,0,0,0.05,12.950000000000001,0)" xlink:href="#af"/><use transform="matrix(0.05,0,0,0.05,16.900000000000002,0)" xlink:href="#ag"/><use transform="matrix(0.05,0,0,0.05,26.900000000000002,0)" xlink:href="#ah"/><use transform="matrix(0.05,0,0,0.05,36.900000000000006,0)" xlink:href="#ai"/></g><path fill="#248814" d="M115-194c53 0 69 39 70 98 0 66-23 100-70 100C84 3 66-7 56-30L54 0H23l1-261h32v101c10-23 28-34 59-34zm-8 174c40 0 45-34 45-75 0-40-5-75-45-74-42 0-51 32-51 76 0 43 10 73 51 73" id="aj"/><path fill="#248814" d="M96-169c-40 0-48 33-48 73s9 75 48 75c24 0 41-14 43-38l32 2c-6 37-31 61-74 61-59 0-76-41-82-99-10-93 101-131 147-64 4 7 5 14 7 22l-32 3c-4-21-16-35-41-35" id="ak"/><g id="h"><use transform="matrix(0.05,0,0,0.05,0,0)" xlink:href="#V"/><use transform="matrix(0.05,0,0,0.05,12,0)" xlink:href="#S"/><use transform="matrix(0.05,0,0,0.05,22,0)" xlink:href="#aj"/><use transform="matrix(0.05,0,0,0.05,32,0)" xlink:href="#U"/><use transform="matrix(0.05,0,0,0.05,35.95,0)" xlink:href="#P"/><use transform="matrix(0.05,0,0,0.05,39.900000000000006,0)" xlink:href="#ak"/></g><path fill="#248814" d="M185-189c-5-48-123-54-124 2 14 75 158 14 163 119 3 78-121 87-175 55-17-10-28-26-33-46l33-7c5 56 141 63 141-1 0-78-155-14-162-118-5-82 145-84 179-34 5 7 8 16 11 25" id="al"/><path fill="#248814" d="M117-194c89-4 53 116 60 194h-32v-121c0-31-8-49-39-48C34-167 62-67 57 0H25l-1-190h30c1 10-1 24 2 32 11-22 29-35 61-36" id="am"/><g id="i"><use transform="matrix(0.05,0,0,0.05,0,0)" xlink:href="#al"/><use transform="matrix(0.05,0,0,0.05,12,0)" xlink:href="#S"/><use transform="matrix(0.05,0,0,0.05,22,0)" xlink:href="#aj"/><use transform="matrix(0.05,0,0,0.05,32,0)" xlink:href="#am"/><use transform="matrix(0.05,0,0,0.05,42,0)" xlink:href="#X"/><use transform="matrix(0.05,0,0,0.05,52,0)" xlink:href="#R"/></g><path fill="#333" d="M212-179c-10-28-35-45-73-45-59 0-87 40-87 99 0 60 29 101 89 101 43 0 62-24 78-52l27 14C228-24 195 4 139 4 59 4 22-46 18-125c-6-104 99-153 187-111 19 9 31 26 39 46" id="an"/><path fill="#333" d="M84 4C-5 8 30-112 23-190h32v120c0 31 7 50 39 49 72-2 45-101 50-169h31l1 190h-30c-1-10 1-25-2-33-11 22-28 36-60 37" id="ao"/><path fill="#333" d="M135-143c-3-34-86-38-87 0 15 53 115 12 119 90S17 21 10-45l28-5c4 36 97 45 98 0-10-56-113-15-118-90-4-57 82-63 122-42 12 7 21 19 24 35" id="ap"/><path fill="#333" d="M59-47c-2 24 18 29 38 22v24C64 9 27 4 27-40v-127H5v-23h24l9-43h21v43h35v23H59v120" id="aq"/><path fill="#333" d="M100-194c62-1 85 37 85 99 1 63-27 99-86 99S16-35 15-95c0-66 28-99 85-99zM99-20c44 1 53-31 53-75 0-43-8-75-51-75s-53 32-53 75 10 74 51 75" id="ar"/><path fill="#333" d="M210-169c-67 3-38 105-44 169h-31v-121c0-29-5-50-35-48C34-165 62-65 56 0H25l-1-190h30c1 10-1 24 2 32 10-44 99-50 107 0 11-21 27-35 58-36 85-2 47 119 55 194h-31v-121c0-29-5-49-35-48" id="as"/><path fill="#333" d="M100-194c63 0 86 42 84 106H49c0 40 14 67 53 68 26 1 43-12 49-29l28 8c-11 28-37 45-77 45C44 4 14-33 15-96c1-61 26-98 85-98zm52 81c6-60-76-77-97-28-3 7-6 17-6 28h103" id="at"/><path fill="#333" d="M114-163C36-179 61-72 57 0H25l-1-190h30c1 12-1 29 2 39 6-27 23-49 58-41v29" id="au"/><g id="j"><use transform="matrix(0.06172839506172839,0,0,0.06172839506172839,0,0)" xlink:href="#an"/><use transform="matrix(0.06172839506172839,0,0,0.06172839506172839,15.987654320987653,0)" xlink:href="#ao"/><use transform="matrix(0.06172839506172839,0,0,0.06172839506172839,28.333333333333332,0)" xlink:href="#ap"/><use transform="matrix(0.06172839506172839,0,0,0.06172839506172839,39.44444444444444,0)" xlink:href="#aq"/><use transform="matrix(0.06172839506172839,0,0,0.06172839506172839,45.617283950617285,0)" xlink:href="#ar"/><use transform="matrix(0.06172839506172839,0,0,0.06172839506172839,57.96296296296296,0)" xlink:href="#as"/><use transform="matrix(0.06172839506172839,0,0,0.06172839506172839,76.41975308641975,0)" xlink:href="#at"/><use transform="matrix(0.06172839506172839,0,0,0.06172839506172839,88.76543209876543,0)" xlink:href="#au"/></g><path fill="#333" d="M177-190C167-65 218 103 67 71c-23-6-38-20-44-43l32-5c15 47 100 32 89-28v-30C133-14 115 1 83 1 29 1 15-40 15-95c0-56 16-97 71-98 29-1 48 16 59 35 1-10 0-23 2-32h30zM94-22c36 0 50-32 50-73 0-42-14-75-50-75-39 0-46 34-46 75s6 73 46 73" id="av"/><path fill="#333" d="M141-36C126-15 110 5 73 4 37 3 15-17 15-53c-1-64 63-63 125-63 3-35-9-54-41-54-24 1-41 7-42 31l-33-3c5-37 33-52 76-52 45 0 72 20 72 64v82c-1 20 7 32 28 27v20c-31 9-61-2-59-35zM48-53c0 20 12 33 32 33 41-3 63-29 60-74-43 2-92-5-92 41" id="aw"/><path fill="#333" d="M206 0h-36l-40-164L89 0H53L-1-190h32L70-26l43-164h34l41 164 42-164h31" id="ax"/><path fill="#333" d="M179-190L93 31C79 59 56 82 12 73V49c39 6 53-20 64-50L1-190h34L92-34l54-156h33" id="ay"/><g id="k"><use transform="matrix(0.06172839506172839,0,0,0.06172839506172839,0,0)" xlink:href="#av"/><use transform="matrix(0.06172839506172839,0,0,0.06172839506172839,12.345679012345679,0)" xlink:href="#aw"/><use transform="matrix(0.06172839506172839,0,0,0.06172839506172839,24.691358024691358,0)" xlink:href="#aq"/><use transform="matrix(0.06172839506172839,0,0,0.06172839506172839,30.864197530864196,0)" xlink:href="#at"/><use transform="matrix(0.06172839506172839,0,0,0.06172839506172839,43.20987654320987,0)" xlink:href="#ax"/><use transform="matrix(0.06172839506172839,0,0,0.06172839506172839,59.197530864197525,0)" xlink:href="#aw"/><use transform="matrix(0.06172839506172839,0,0,0.06172839506172839,71.5432098765432,0)" xlink:href="#ay"/></g><path fill="#333" d="M137 0h-34L2-248h35l83 218 83-218h36" id="az"/><path fill="#333" d="M30-248c87 1 191-15 191 75 0 78-77 80-158 76V0H30v-248zm33 125c57 0 124 11 124-50 0-59-68-47-124-48v98" id="aA"/><path fill="#333" d="M190 0L58-211 59 0H30v-248h39L202-35l-2-213h31V0h-41" id="aB"/><g id="l"><use transform="matrix(0.06172839506172839,0,0,0.06172839506172839,0,0)" xlink:href="#az"/><use transform="matrix(0.06172839506172839,0,0,0.06172839506172839,14.814814814814813,0)" xlink:href="#aA"/><use transform="matrix(0.06172839506172839,0,0,0.06172839506172839,29.629629629629626,0)" xlink:href="#aB"/></g><path fill="#333" d="M143 4C61 4 22-44 18-125c-5-107 100-154 193-111 17 8 29 25 37 43l-32 9c-13-25-37-40-76-40-61 0-88 39-88 99 0 61 29 100 91 101 35 0 62-11 79-27v-45h-74v-28h105v86C228-13 192 4 143 4" id="aC"/><g id="m"><use transform="matrix(0.06172839506172839,0,0,0.06172839506172839,0,0)" xlink:href="#aC"/><use transform="matrix(0.06172839506172839,0,0,0.06172839506172839,17.28395061728395,0)" xlink:href="#aw"/><use transform="matrix(0.06172839506172839,0,0,0.06172839506172839,29.629629629629626,0)" xlink:href="#aq"/><use transform="matrix(0.06172839506172839,0,0,0.06172839506172839,35.80246913580247,0)" xlink:href="#at"/><use transform="matrix(0.06172839506172839,0,0,0.06172839506172839,48.148148148148145,0)" xlink:href="#ax"/><use transform="matrix(0.06172839506172839,0,0,0.06172839506172839,64.1358024691358,0)" xlink:href="#aw"/><use transform="matrix(0.06172839506172839,0,0,0.06172839506172839,76.48148148148148,0)" xlink:href="#ay"/></g><path fill="#333" d="M160-131c35 5 61 23 61 61C221 17 115-2 30 0v-248c76 3 177-17 177 60 0 33-19 50-47 57zm-97-11c50-1 110 9 110-42 0-47-63-36-110-37v79zm0 115c55-2 124 14 124-45 0-56-70-42-124-44v89" id="aD"/><g id="n"><use transform="matrix(0.06172839506172839,0,0,0.06172839506172839,0,0)" xlink:href="#aD"/><use transform="matrix(0.06172839506172839,0,0,0.06172839506172839,14.814814814814813,0)" xlink:href="#at"/><use transform="matrix(0.06172839506172839,0,0,0.06172839506172839,27.160493827160494,0)" xlink:href="#aw"/><use transform="matrix(0.06172839506172839,0,0,0.06172839506172839,39.50617283950617,0)" xlink:href="#as"/></g><path fill="#333" d="M233-177c-1 41-23 64-60 70L243 0h-38l-65-103H63V0H30v-248c88 3 205-21 203 71zM63-129c60-2 137 13 137-47 0-61-80-42-137-45v92" id="aE"/><path fill="#333" d="M117-194c89-4 53 116 60 194h-32v-121c0-31-8-49-39-48C34-167 62-67 57 0H25l-1-190h30c1 10-1 24 2 32 11-22 29-35 61-36" id="aF"/><path fill="#333" d="M24-231v-30h32v30H24zM24 0v-190h32V0H24" id="aG"/><g id="o"><use transform="matrix(0.06172839506172839,0,0,0.06172839506172839,0,0)" xlink:href="#aE"/><use transform="matrix(0.06172839506172839,0,0,0.06172839506172839,15.987654320987653,0)" xlink:href="#ao"/><use transform="matrix(0.06172839506172839,0,0,0.06172839506172839,28.333333333333332,0)" xlink:href="#aF"/><use transform="matrix(0.06172839506172839,0,0,0.06172839506172839,40.67901234567901,0)" xlink:href="#aF"/><use transform="matrix(0.06172839506172839,0,0,0.06172839506172839,53.02469135802469,0)" xlink:href="#aG"/><use transform="matrix(0.06172839506172839,0,0,0.06172839506172839,57.901234567901234,0)" xlink:href="#aF"/><use transform="matrix(0.06172839506172839,0,0,0.06172839506172839,70.24691358024691,0)" xlink:href="#av"/></g><g id="p"><use transform="matrix(0.06172839506172839,0,0,0.06172839506172839,0,0)" xlink:href="#ar"/><use transform="matrix(0.06172839506172839,0,0,0.06172839506172839,12.345679012345679,0)" xlink:href="#aF"/></g><path fill="#333" d="M30 0v-248h187v28H63v79h144v27H63v87h162V0H30" id="aH"/><g id="q"><use transform="matrix(0.06172839506172839,0,0,0.06172839506172839,0,0)" xlink:href="#aC"/><use transform="matrix(0.06172839506172839,0,0,0.06172839506172839,17.28395061728395,0)" xlink:href="#an"/><use transform="matrix(0.06172839506172839,0,0,0.06172839506172839,33.2716049382716,0)" xlink:href="#aH"/></g><path fill="#333" d="M140-251c81 0 123 46 123 126C263-53 228-8 163 1c7 30 30 48 69 40v23c-55 16-95-15-103-61C56-3 17-48 17-125c0-80 42-126 123-126zm0 227c63 0 89-41 89-101s-29-99-89-99c-61 0-89 39-89 99S79-25 140-24" id="aI"/><g id="r"><use transform="matrix(0.06172839506172839,0,0,0.06172839506172839,0,0)" xlink:href="#aD"/><use transform="matrix(0.06172839506172839,0,0,0.06172839506172839,14.814814814814813,0)" xlink:href="#aG"/><use transform="matrix(0.06172839506172839,0,0,0.06172839506172839,19.691358024691354,0)" xlink:href="#av"/><use transform="matrix(0.06172839506172839,0,0,0.06172839506172839,32.03703703703703,0)" xlink:href="#aI"/><use transform="matrix(0.06172839506172839,0,0,0.06172839506172839,49.32098765432098,0)" xlink:href="#ao"/><use transform="matrix(0.06172839506172839,0,0,0.06172839506172839,61.66666666666666,0)" xlink:href="#at"/><use transform="matrix(0.06172839506172839,0,0,0.06172839506172839,74.01234567901234,0)" xlink:href="#au"/><use transform="matrix(0.06172839506172839,0,0,0.06172839506172839,81.35802469135803,0)" xlink:href="#ay"/></g><path fill="#333" d="M24 0v-261h32V0H24" id="aJ"/><path fill="#333" d="M85-194c31 0 48 13 60 33l-1-100h32l1 261h-30c-2-10 0-23-3-31C134-8 116 4 85 4 32 4 16-35 15-94c0-66 23-100 70-100zm9 24c-40 0-46 34-46 75 0 40 6 74 45 74 42 0 51-32 51-76 0-42-9-74-50-73" id="aK"/><g id="s"><use transform="matrix(0.06172839506172839,0,0,0.06172839506172839,0,0)" xlink:href="#an"/><use transform="matrix(0.06172839506172839,0,0,0.06172839506172839,15.987654320987653,0)" xlink:href="#aJ"/><use transform="matrix(0.06172839506172839,0,0,0.06172839506172839,20.864197530864196,0)" xlink:href="#ar"/><use transform="matrix(0.06172839506172839,0,0,0.06172839506172839,33.20987654320987,0)" xlink:href="#ao"/><use transform="matrix(0.06172839506172839,0,0,0.06172839506172839,45.55555555555555,0)" xlink:href="#aK"/></g><g id="t"><use transform="matrix(0.06172839506172839,0,0,0.06172839506172839,0,0)" xlink:href="#az"/><use transform="matrix(0.06172839506172839,0,0,0.06172839506172839,14.814814814814813,0)" xlink:href="#aA"/><use transform="matrix(0.06172839506172839,0,0,0.06172839506172839,29.629629629629626,0)" xlink:href="#aB"/></g><g id="u"><use transform="matrix(0.055555555555555546,0,0,0.055555555555555546,0,0)" xlink:href="#aE"/><use transform="matrix(0.055555555555555546,0,0,0.055555555555555546,14.388888888888886,0)" xlink:href="#ar"/><use transform="matrix(0.055555555555555546,0,0,0.055555555555555546,25.499999999999993,0)" xlink:href="#ao"/><use transform="matrix(0.055555555555555546,0,0,0.055555555555555546,36.6111111111111,0)" xlink:href="#aq"/><use transform="matrix(0.055555555555555546,0,0,0.055555555555555546,42.16666666666666,0)" xlink:href="#at"/><use transform="matrix(0.055555555555555546,0,0,0.055555555555555546,53.277777777777764,0)" xlink:href="#au"/></g><path fill="#333" d="M27 0v-27h64v-190l-56 39v-29l58-41h29v221h61V0H27" id="aL"/><use transform="matrix(0.055555555555555546,0,0,0.055555555555555546,0,0)" xlink:href="#aL" id="v"/><g id="w"><use transform="matrix(0.06172839506172839,0,0,0.06172839506172839,0,0)" xlink:href="#an"/><use transform="matrix(0.06172839506172839,0,0,0.06172839506172839,15.987654320987653,0)" xlink:href="#aJ"/><use transform="matrix(0.06172839506172839,0,0,0.06172839506172839,20.864197530864196,0)" xlink:href="#ar"/><use transform="matrix(0.06172839506172839,0,0,0.06172839506172839,33.20987654320987,0)" xlink:href="#ao"/><use transform="matrix(0.06172839506172839,0,0,0.06172839506172839,45.55555555555555,0)" xlink:href="#aK"/></g><path fill="#333" d="M143 0L79-87 56-68V0H24v-261h32v163l83-92h37l-77 82L181 0h-38" id="aM"/><g id="x"><use transform="matrix(0.06172839506172839,0,0,0.06172839506172839,0,0)" xlink:href="#aB"/><use transform="matrix(0.06172839506172839,0,0,0.06172839506172839,15.987654320987653,0)" xlink:href="#at"/><use transform="matrix(0.06172839506172839,0,0,0.06172839506172839,28.333333333333332,0)" xlink:href="#aq"/><use transform="matrix(0.06172839506172839,0,0,0.06172839506172839,34.50617283950617,0)" xlink:href="#ax"/><use transform="matrix(0.06172839506172839,0,0,0.06172839506172839,50.49382716049382,0)" xlink:href="#ar"/><use transform="matrix(0.06172839506172839,0,0,0.06172839506172839,62.8395061728395,0)" xlink:href="#au"/><use transform="matrix(0.06172839506172839,0,0,0.06172839506172839,70.18518518518518,0)" xlink:href="#aM"/></g><g id="y"><use transform="matrix(0.04320987654320987,0,0,0.04320987654320987,0,0)" xlink:href="#az"/><use transform="matrix(0.04320987654320987,0,0,0.04320987654320987,10.370370370370368,0)" xlink:href="#aA"/><use transform="matrix(0.04320987654320987,0,0,0.04320987654320987,20.740740740740737,0)" xlink:href="#aB"/></g><path fill="#333" d="M33 0v-248h34V0H33" id="aN"/><g id="z"><use transform="matrix(0.04320987654320987,0,0,0.04320987654320987,0,0)" xlink:href="#aN"/><use transform="matrix(0.04320987654320987,0,0,0.04320987654320987,4.320987654320986,0)" xlink:href="#aA"/></g><path fill="#333" d="M101-251c82-7 93 87 43 132L82-64C71-53 59-42 53-27h129V0H18c2-99 128-94 128-182 0-28-16-43-45-43s-46 15-49 41l-32-3c6-41 34-60 81-64" id="aO"/><use transform="matrix(0.055555555555555546,0,0,0.055555555555555546,0,0)" xlink:href="#aO" id="A"/><path fill="#333" d="M136-208V0H84v-208H4v-40h212v40h-80" id="aP"/><path fill="#333" d="M85 4C-2 5 27-109 22-190h50c7 57-23 150 33 157 60-5 35-97 40-157h50l1 190h-47c-2-12 1-28-3-38-12 25-28 42-61 42" id="aQ"/><path fill="#333" d="M135-194c87-1 58 113 63 194h-50c-7-57 23-157-34-157-59 0-34 97-39 157H25l-1-190h47c2 12-1 28 3 38 12-26 28-41 61-42" id="aR"/><path fill="#333" d="M185-48c-13 30-37 53-82 52C43 2 14-33 14-96s30-98 90-98c62 0 83 45 84 108H66c0 31 8 55 39 56 18 0 30-7 34-22zm-45-69c5-46-57-63-70-21-2 6-4 13-4 21h74" id="aS"/><path fill="#333" d="M25 0v-261h50V0H25" id="aT"/><g id="B"><use transform="matrix(0.04938271604938272,0,0,0.04938271604938272,0,0)" xlink:href="#aP"/><use transform="matrix(0.04938271604938272,0,0,0.04938271604938272,9.481481481481481,0)" xlink:href="#aQ"/><use transform="matrix(0.04938271604938272,0,0,0.04938271604938272,20.296296296296298,0)" xlink:href="#aR"/><use transform="matrix(0.04938271604938272,0,0,0.04938271604938272,31.111111111111114,0)" xlink:href="#aR"/><use transform="matrix(0.04938271604938272,0,0,0.04938271604938272,41.92592592592593,0)" xlink:href="#aS"/><use transform="matrix(0.04938271604938272,0,0,0.04938271604938272,51.802469135802475,0)" xlink:href="#aT"/></g><path fill="#333" d="M23 0v-37h61v-169l-59 37v-38l62-41h46v211h57V0H23" id="aU"/><use transform="matrix(0.04938271604938272,0,0,0.04938271604938272,0,0)" xlink:href="#aU" id="C"/><path fill="#333" d="M182-182c0 78-84 86-111 141h115V0H12c-6-101 99-100 120-180 1-22-12-31-33-32-23 0-32 14-35 34l-49-3c5-45 32-70 84-70 51 0 83 22 83 69" id="aV"/><use transform="matrix(0.04938271604938272,0,0,0.04938271604938272,0,0)" xlink:href="#aV" id="D"/></defs></g></svg>